<?xml version="1.0" encoding="UTF-8"?>
<svg id="katman_1" data-name="katman 1" xmlns="http://www.w3.org/2000/svg" viewBox="0 0 234.88 234.88">
  <defs>
    <style>
      .cls-1 {
        fill: #ffbf00;
      }

      .cls-1, .cls-2, .cls-3 {
        stroke-width: 0px;
      }

      .cls-2 {
        fill: #8f39ff;
      }

      .cls-3 {
        fill: #ff7f00;
      }
    </style>
  </defs>
  <circle class="cls-2" cx="117.44" cy="117.44" r="117.44"/>
  <g>
    <path class="cls-1" d="M154.98,117.77c26.15-23.38,40.06-45.2,32.19-52.88-6.29-6.14-24.95-1.73-47.87,9.95-4.75-22.4-13.14-37.28-22.7-37.28s-18.09,15.14-22.81,37.89c-22.86-11.63-41.48-16-47.74-9.87-7.79,7.59,5.78,29.07,31.43,52.19-25.65,23.13-39.22,44.6-31.43,52.2,6.29,6.14,24.95,1.73,47.87-9.95,4.75,22.41,13.14,37.29,22.69,37.29s17.8-14.6,22.57-36.67c22.98,11.73,41.7,16.16,47.99,10.01,7.87-7.68-6.04-29.5-32.19-52.88ZM52.07,70.07c4.74-4.64,20.62.01,40.68,10.83-1.4,8.05-2.34,16.89-2.73,26.23-2.85,2.27-5.59,4.57-8.22,6.83-22.84-20.21-35.55-38.2-29.72-43.89ZM89.81,120.79c-1.2-.99-2.38-1.97-3.53-2.95,1.15-.99,2.33-1.98,3.53-2.99-.02.85-.02,1.72-.02,2.58,0,1.13.01,2.25.02,3.36ZM53.29,164.59c-5.73-5.59,6.47-23.11,28.62-42.92,2.61,2.25,5.33,4.51,8.14,6.77.43,9.24,1.38,17.97,2.78,25.91-19.53,10.39-34.89,14.78-39.54,10.24ZM136.56,102.62c-.76-.58-1.53-1.15-2.31-1.73-4.35-3.23-8.7-6.31-13.01-9.19,4.54-2.95,9.01-5.69,13.31-8.17.91,5.92,1.59,12.32,2.01,19.09ZM116.61,45.75c7.07,0,13.31,12.75,16.98,32.11-5.66,3.09-11.53,6.59-17.5,10.45-5.64-3.62-11.2-6.91-16.56-9.83,3.64-19.71,9.94-32.73,17.08-32.73ZM98.58,84.15c4,2.31,8.14,4.83,12.36,7.55-3.98,2.69-7.98,5.52-11.97,8.5-.76.57-1.52,1.14-2.27,1.7.42-6.26,1.05-12.23,1.88-17.75ZM96.67,133.61c.76.58,1.53,1.15,2.31,1.73,3.97,2.95,7.94,5.77,11.88,8.43-4.24,2.71-8.39,5.21-12.4,7.49-.8-5.5-1.41-11.43-1.79-17.65ZM116.61,190.48c-7.22,0-13.56-13.3-17.2-33.37,5.4-2.93,10.99-6.24,16.68-9.88,6.01,3.89,11.91,7.4,17.61,10.51-3.64,19.72-9.94,32.75-17.09,32.75ZM134.67,151.89c-4.31-2.46-8.78-5.16-13.33-8.1,4.28-2.87,8.6-5.93,12.92-9.14.8-.59,1.57-1.18,2.35-1.76-.39,6.71-1.05,13.1-1.94,19ZM136.94,125.29c-2.05,1.59-4.15,3.2-6.3,4.8-4.88,3.63-9.76,7.07-14.54,10.27-4.45-3-8.99-6.19-13.52-9.57-2.15-1.59-4.23-3.2-6.27-4.79-.07-2.58-.12-5.21-.12-7.88,0-2.9.05-5.74.14-8.55,2.41-1.89,4.9-3.79,7.45-5.7,4.13-3.08,8.26-6.01,12.33-8.77,4.39,2.95,8.86,6.11,13.33,9.45,2.56,1.9,5.05,3.82,7.47,5.72.08,2.57.12,5.19.12,7.84,0,2.42-.03,4.81-.09,7.17ZM181.14,69.39c5.89,5.74-7.17,24.1-30.51,44.58-2.38-2.04-4.84-4.09-7.39-6.14-.39-9.85-1.38-19.15-2.88-27.56,20.12-10.85,36.03-15.53,40.79-10.89ZM143.43,115.55c.91.76,1.82,1.52,2.71,2.28-.9.76-1.8,1.51-2.72,2.27.02-.89.02-1.78.02-2.66,0-.63,0-1.26-.01-1.89ZM179.94,165.27c-4.66,4.56-20.08.14-39.65-10.29,1.5-8.32,2.5-17.51,2.92-27.24,2.53-2.02,4.97-4.05,7.34-6.08,22.64,20.08,35.2,37.95,29.4,43.61Z"/>
    <circle class="cls-3" cx="116.62" cy="117.44" r="7.5"/>
    <circle class="cls-3" cx="174.29" cy="95.52" r="7.5"/>
    <circle class="cls-3" cx="100.47" cy="59.77" r="7.5"/>
    <circle class="cls-3" cx="100.47" cy="173.96" r="7.5"/>
    <circle class="cls-3" cx="183.51" cy="167.04" r="7.5"/>
    <circle class="cls-3" cx="64.71" cy="133.59" r="7.5"/>
  </g>
</svg>