<?xml version="1.0" encoding="UTF-8"?>
<svg id="katman_1" data-name="katman 1" xmlns="http://www.w3.org/2000/svg" viewBox="0 0 234.88 234.88">
  <defs>
    <style>
      .cls-1 {
        fill: #8e24aa;
      }

      .cls-1, .cls-2, .cls-3, .cls-4, .cls-5, .cls-6, .cls-7, .cls-8, .cls-9 {
        stroke-width: 0px;
      }

      .cls-2 {
        fill: #282528;
      }

      .cls-3 {
        fill: #3586ff;
      }

      .cls-4 {
        fill: #3636ff;
      }

      .cls-5 {
        fill: #fdd835;
      }

      .cls-6 {
        fill: #ff9a00;
      }

      .cls-7 {
        fill: #e03c31;
      }

      .cls-8 {
        fill: #00796b;
      }

      .cls-9 {
        fill: #fff;
      }
    </style>
  </defs>
  <circle class="cls-3" cx="117.44" cy="117.44" r="117.44"/>
  <path class="cls-2" d="M153.99,166.7c-2.97,1.71-8.88,5.62-13.11,12.58-4.31,7.11-4.64,13.73-4.53,17,.23.41.35.83.35,1.27,0,3.68-8.49,6.65-18.96,6.65h0c-10.47,0-18.96-2.98-18.96-6.65,0-.44.12-.86.35-1.27.11-3.27-.21-9.89-4.53-17-4.23-6.96-10.14-10.87-13.11-12.58,3.12-.48,7.58-1.52,11.99-4.11,4.89-2.87,8.11-6.69,12.27-11.61,4.43-5.25,7.2-9.68,11.99-10.34,4.79.66,7.56,5.1,11.99,10.34,4.16,4.93,7.38,8.74,12.27,11.61,4.41,2.59,8.87,3.64,11.99,4.11Z"/>
  <path class="cls-8" d="M168.04,116.71c17.53,1.08,32.16,11.66,38.94,26.29-8.51,13.69-24.33,22.4-41.86,21.33-17.53-1.08-32.16-11.66-38.94-26.29,8.51-13.69,24.33-22.4,41.86-21.33Z"/>
  <path class="cls-4" d="M164.96,116.62c-.84,1.22-1.74,2.41-2.72,3.56-9.16,10.89-22.2,16.53-35.21,16.54-.29,0-.59,0-.88,0,2.7-2.33,4.41-5.77,4.41-9.61,0-7.01-5.68-12.69-12.69-12.69-.15,0-.3,0-.44,0-.82.03-1.62.13-2.4.31.22-2.3.63-4.6,1.21-6.87,1.67-6.55,4.82-12.85,9.49-18.4,11.31-13.44,28.52-18.89,44.31-15.62,5.41,13.71,3.86,29.83-5.09,42.77Z"/>
  <path class="cls-1" d="M226.35,84.72c-.58,15.59-9.41,30.53-24.26,38.51-7.14-5.64-16.08-9.24-25.93-9.85-1.03-.06-2.06-.09-3.08-.09,6.83-9.87,9.35-21.61,7.75-32.71,15.43-7.02,32.74-4.94,45.51,4.14Z"/>
  <path class="cls-5" d="M105.19,127.1c0,3.75,1.63,7.13,4.22,9.45-.23.02-.45.04-.68.05-14.07,1.01-28.55-4.63-38.48-16.42-.95-1.12-1.83-2.28-2.65-3.46-9.01-12.95-10.59-29.13-5.16-42.87,15.79-3.27,33,2.18,44.31,15.62,4.67,5.55,7.82,11.85,9.49,18.4.56,2.17.95,4.36,1.18,6.56-.82.03-1.62.13-2.4.31-5.64,1.29-9.85,6.34-9.85,12.37Z"/>
  <path class="cls-6" d="M7.73,84.72c.58,15.59,9.41,30.53,24.26,38.51,7.14-5.64,16.08-9.24,25.93-9.85,1.03-.06,2.06-.09,3.08-.09-6.83-9.87-9.35-21.61-7.75-32.71-15.43-7.02-32.74-4.94-45.51,4.14Z"/>
  <path class="cls-8" d="M140.73,66.88c-5.34,2.74-10.25,6.58-14.37,11.48-4.67,5.55-7.82,11.85-9.49,18.4-1.68-6.55-4.83-12.85-9.49-18.4-4.05-4.82-8.87-8.61-14.11-11.34,1.12-16.17,10.45-30.02,23.74-37.2,13.26,7.16,22.57,20.95,23.73,37.06Z"/>
  <path class="cls-7" d="M67.8,116.71c-17.53,1.08-32.16,11.66-38.94,26.29,8.51,13.69,24.33,22.4,41.86,21.33,17.53-1.08,32.16-11.66,38.94-26.29-8.51-13.69-24.33-22.4-41.86-21.33Z"/>
  <path class="cls-9" d="M81.95,141.31h-8.31v8.52h-4.36v-8.52h-8.31v-3.95h8.31v-8.52h4.36v8.52h8.31v3.95Z"/>
  <path class="cls-9" d="M95.99,96.47v4.25h-18.21v-4.25h18.21Z"/>
  <path class="cls-9" d="M156.86,100.22v3.67h-19.49v-3.67h19.49ZM145.2,95.79c-.53-.53-.8-1.2-.8-1.99s.27-1.45.8-1.99c.53-.53,1.2-.8,1.99-.8s1.41.27,1.95.8c.54.54.8,1.2.8,1.99s-.27,1.45-.8,1.99c-.53.53-1.18.8-1.95.8s-1.45-.27-1.99-.8ZM145.2,112.22c-.53-.53-.8-1.2-.8-1.99s.27-1.45.8-1.99,1.2-.8,1.99-.8,1.41.27,1.95.8c.54.53.8,1.2.8,1.99s-.27,1.45-.8,1.99c-.53.53-1.18.8-1.95.8s-1.45-.27-1.99-.8Z"/>
  <path class="cls-9" d="M175.51,148.99l-6.5-6.5-6.5,6.5-3.21-3.21,6.54-6.5-6.37-6.37,3.12-3.12,6.37,6.37,6.37-6.37,3.21,3.21-6.37,6.37,6.46,6.5-3.12,3.12Z"/>
  <path class="cls-9" d="M128.18,49.15v2.93h-2.54v15.21h-3.72v-15.21h-8.53v15.21h-3.75v-15.21h-2.5v-2.93h21.04Z"/>
  <path class="cls-9" d="M30.85,88.33c-1.4.88-3.11,2.64-3.11,5.5,0,2.64,1.43,4.84,4.32,5.28v-8.09c0-2.86,1.57-4.02,3.38-4.02,2.61,0,5.45,2.5,5.45,6.58,0,4.57-3.25,6.96-6.6,7.29v5.17h-2.23v-5.17c-3.3-.25-6.71-2.31-6.71-6.99,0-3.82,2.75-6.14,4.57-6.91l.94,1.35ZM34.29,99.12c2.61-.36,4.29-2.39,4.29-5.48,0-2.72-1.6-4.87-3.14-4.87-.69,0-1.16.61-1.16,1.87v8.47Z"/>
  <path class="cls-9" d="M196.24,96.97c.07,4.3,2.82,6.07,5.99,6.07,2.27,0,3.65-.4,4.84-.9l.54,2.27c-1.12.51-3.03,1.08-5.81,1.08-5.38,0-8.59-3.54-8.59-8.81s3.1-9.42,8.19-9.42c5.7,0,7.22,5.02,7.22,8.23,0,.65-.07,1.16-.11,1.48h-12.27ZM205.56,94.7c.04-2.02-.83-5.16-4.4-5.16-3.21,0-4.62,2.96-4.87,5.16h9.28Z"/>
</svg>