<?xml version="1.0" encoding="UTF-8"?>
<svg id="katman_1" data-name="katman 1" xmlns="http://www.w3.org/2000/svg" viewBox="0 0 234.88 235.16">
  <defs>
    <style>
      .cls-1 {
        fill: #f936ff;
      }

      .cls-1, .cls-2, .cls-3, .cls-4 {
        stroke-width: 0px;
      }

      .cls-2 {
        fill: #f5f5f5;
      }

      .cls-3 {
        fill: #ddd;
      }

      .cls-4 {
        fill: #9a25a0;
      }
    </style>
  </defs>
  <circle class="cls-1" cx="117.44" cy="117.44" r="117.44"/>
  <path class="cls-3" d="M162.07,117.66c0,12.31-4.99,23.44-13.06,31.5-8.05,8.03-19.17,13-31.44,13s-23.39-4.97-31.44-13c-8.07-8.06-13.06-19.19-13.06-31.5,0-24.58,19.92-44.5,44.5-44.5s44.5,19.92,44.5,44.5Z"/>
  <circle class="cls-2" cx="117.44" cy="117.38" r="31.78"/>
  <g>
    <path class="cls-1" d="M138.86,110.15c0,2.04-.61,4.08-1.82,5.84h-9.09l-2.03-2.89c-.25-.36-.75-.45-1.12-.21-.08.06-.15.12-.2.19-.06.04-.11.1-.16.17l-4.41,6.31-4.39-6.27s-.07-.09-.12-.13l-2.84-4.07c-.17-.24-.44-.36-.72-.34h0c-.28-.02-.55.1-.72.34l-4.83,6.9h-8.44s-.08,0-.12.01c-1.22-1.76-1.83-3.8-1.83-5.85,0-2.68,1.05-5.37,3.15-7.41,4.2-4.09,11.01-4.09,15.22,0l3.05,2.98,3.05-2.98c4.2-4.09,11.01-4.09,15.22,0,2.1,2.05,3.15,4.73,3.15,7.41Z"/>
    <path class="cls-1" d="M127.56,119.57h8.15,0s-3.05,2.98-3.05,2.98l-15.22,14.83-15.22-14.83-3.05-2.98s0,0,0,0h7.68c.22,0,.43-.09.57-.23.06-.06.12-.13.15-.21l4.39-6.27,4.39,6.27s.07.09.12.13l2.84,4.07c.17.24.45.36.72.34h0c.27.02.55-.1.72-.34l4.48-6.41,1.6,2.28c.07.1.17.19.27.24,0,0,.02.01.02.02,0,0,0,0,0,0,.12.07.27.12.42.12Z"/>
  </g>
  <rect class="cls-4" x="91.07" y=".16" width="53" height="73" rx="26.5" ry="26.5"/>
  <path class="cls-4" d="M149.21,149.16l-5.11,40.5h-.03v19c0,14.64-11.86,26.5-26.5,26.5s-26.5-11.86-26.5-26.5v-19c0-.73.03-1.44.09-2.15l-5.09-38.35h.06c8.05,8.03,19.17,13,31.44,13s23.39-4.97,31.44-13h.2Z"/>
  <path class="cls-4" d="M149.21,86.16l-5.11-40.5h-.03v-19c0-14.64-11.86-26.5-26.5-26.5s-26.5,11.86-26.5,26.5v19c0,.73.03,1.44.09,2.15l-5.09,38.35h.06c8.05-8.03,19.17-13,31.44-13s23.39,4.97,31.44,13h.2Z"/>
  <circle class="cls-1" cx="118.07" cy="205.16" r="6"/>
  <circle class="cls-1" cx="118.07" cy="224.16" r="6"/>
  <path class="cls-1" d="M124.07,186.16c0,1.31-.42,2.52-1.13,3.5-1.09,1.51-2.86,2.5-4.87,2.5s-3.78-.99-4.87-2.5c-.71-.98-1.13-2.19-1.13-3.5,0-3.31,2.69-6,6-6s6,2.69,6,6Z"/>
  <g>
    <rect class="cls-2" x="18.07" y="79.16" width="54" height="12"/>
    <rect class="cls-2" x="18.07" y="79.16" width="54" height="12" transform="translate(130.23 40.09) rotate(90)"/>
  </g>
  <g>
    <rect class="cls-2" x="169.07" y="151.16" width="54" height="12"/>
    <rect class="cls-2" x="169.07" y="151.16" width="54" height="12" transform="translate(353.23 -38.91) rotate(90)"/>
  </g>
</svg>