<?xml version="1.0" encoding="UTF-8"?>
<svg id="katman_1" data-name="katman 1" xmlns="http://www.w3.org/2000/svg" viewBox="0 0 370 550">
  <defs>
    <style>
      .cls-1 {
        fill: #3586ff;
      }

      .cls-1, .cls-2, .cls-3 {
        stroke-width: 0px;
      }

      .cls-2 {
        fill: #f5f5f5;
      }

      .cls-3 {
        fill: #fff;
      }
    </style>
  </defs>
  <rect class="cls-1" width="370" height="550" rx="30" ry="30"/>
  <path class="cls-2" d="M13.4,35.03h343.2v472.09c0,16.56-13.44,30-30,30H43.4c-16.56,0-30-13.44-30-30V35.03h0Z"/>
  <rect class="cls-3" x="30.83" y="59.81" width="308.35" height="452.53"/>
  <ellipse class="cls-3" cx="184.94" cy="17.25" rx="13.91" ry="14.03"/>
  <g>
    <g>
      <path class="cls-1" d="M198.76,253.5l-17.54,18.96-4.32,4.66h-27.68v32.74l-2.41,2.66-20.2,22.28v-153.94c-29.06,20.29-48.19,54.88-48.19,94.15,0,48.74,29.47,90.28,70.8,106.23v15.41c-49.17-16.56-84.75-64.77-84.75-121.64s35.58-105.08,84.75-121.64v100.13h49.54Z"/>
      <g>
        <path class="cls-1" d="M284.41,203.14c-5.79-8.88-12.6-16.93-20.28-24.02-12.44-11.47-27.15-20.33-43.3-25.77v15.43c12.42,4.8,23.78,11.9,33.58,20.84,7.75,7.03,14.51,15.19,20.07,24.25,10.85,17.64,17.13,38.6,17.13,61.13,0,29.46-10.78,56.3-28.44,76.43v20.29c25.95-23.42,42.36-58.08,42.36-96.71,0-26.64-7.8-51.39-21.16-71.85l.04-.02Z"/>
        <path class="cls-1" d="M243.45,208.11v178.16c-7.12,4.22-14.69,7.7-22.63,10.38v-149.8h-13.34v-.1l35.97-38.64Z"/>
      </g>
    </g>
    <path class="cls-1" d="M257.79,371.7c0,2.96-2.31,5.37-5.14,5.37s-5.14-2.41-5.14-5.37,2.31-5.39,5.14-5.39,5.14,2.41,5.14,5.39Z"/>
  </g>
</svg>