<?xml version="1.0" encoding="UTF-8"?>
<svg id="katman_1" data-name="katman 1" xmlns="http://www.w3.org/2000/svg" viewBox="0 0 170 285">
  <defs>
    <style>
      .cls-1 {
        fill: #3586ff;
      }

      .cls-1, .cls-2, .cls-3 {
        stroke-width: 0px;
      }

      .cls-2 {
        fill: #f5f5f5;
      }

      .cls-3 {
        fill: #fff;
      }
    </style>
  </defs>
  <g>
    <rect class="cls-1" width="170" height="285" rx="30" ry="30"/>
    <g>
      <rect class="cls-2" x="5.75" y="7.1" width="158.49" height="270.79" rx="30" ry="30"/>
      <rect class="cls-3" x="11.89" y="14.01" width="146.22" height="256.99" rx="30" ry="30"/>
      <path class="cls-2" d="M54.37,9.59h60.98v3.2c0,11.18-9.08,20.25-20.25,20.25h-20.48c-11.18,0-20.25-9.08-20.25-20.25v-3.2h0Z"/>
      <ellipse class="cls-3" cx="84.76" cy="21.3" rx="5.64" ry="5.99"/>
      <ellipse class="cls-3" cx="73.04" cy="21.3" rx="4.14" ry="4.39"/>
      <ellipse class="cls-3" cx="96.48" cy="21.3" rx="4.14" ry="4.39"/>
    </g>
  </g>
  <g>
    <g>
      <path class="cls-1" d="M91.99,131.61l-8.91,9.6-2.2,2.36h-14.06v16.58l-1.22,1.35-10.26,11.28v-77.96c-14.76,10.27-24.48,27.79-24.48,47.68,0,24.68,14.97,45.72,35.96,53.79v7.8c-24.98-8.38-43.05-32.8-43.05-61.6s18.07-53.21,43.05-61.6v50.71h25.16Z"/>
      <g>
        <path class="cls-1" d="M135.49,106.11c-2.94-4.5-6.4-8.57-10.3-12.16-6.32-5.81-13.79-10.29-22-13.05v7.81c6.31,2.43,12.08,6.03,17.06,10.55,3.93,3.56,7.37,7.69,10.19,12.28,5.51,8.93,8.7,19.55,8.7,30.96,0,14.92-5.47,28.51-14.45,38.7v10.27c13.18-11.86,21.52-29.41,21.52-48.98,0-13.49-3.96-26.02-10.75-36.39h.02Z"/>
        <path class="cls-1" d="M114.69,108.63v90.22c-3.62,2.14-7.46,3.9-11.49,5.26v-75.86h-6.78v-.05l18.27-19.57Z"/>
      </g>
    </g>
    <path class="cls-1" d="M121.97,191.47c0,1.5-1.17,2.72-2.61,2.72s-2.61-1.22-2.61-2.72,1.17-2.73,2.61-2.73,2.61,1.22,2.61,2.73Z"/>
  </g>
</svg>