<?xml version="1.0" encoding="UTF-8"?>
<svg id="katman_1" data-name="katman 1" xmlns="http://www.w3.org/2000/svg" viewBox="0 0 224 224">
  <defs>
    <style>
      .cls-1 {
        fill: #36ff49;
      }

      .cls-1, .cls-2 {
        stroke-width: 0px;
      }

      .cls-2 {
        fill: #fff;
      }
    </style>
  </defs>
  <rect class="cls-1" x="0" width="224" height="224" rx="35.15" ry="35.15"/>
  <g>
    <path class="cls-2" d="M100.89,158.57l-19.67,18.11-16.82-20.78-42.82-52.82c-4.63-5.73-3.76-14.13,1.97-18.77,2.47-2.01,5.44-2.98,8.39-2.98,3.88,0,7.74,1.69,10.37,4.94l41.75,51.53,16.82,20.76Z"/>
    <path class="cls-2" d="M207.4,54.64c0,3.61-1.44,7.2-4.3,9.83l-102.21,94.09-19.67,18.11-16.82-20.78,19.67-18.1,100.96-92.96c5.41-4.99,13.86-4.65,18.85.78,2.36,2.55,3.52,5.8,3.52,9.02Z"/>
  </g>
</svg>