<?xml version="1.0" encoding="UTF-8"?>
<svg id="katman_1" data-name="katman 1" xmlns="http://www.w3.org/2000/svg" viewBox="0 0 234.88 234.88">
  <defs>
    <style>
      .cls-1 {
        fill: #5817bf;
      }

      .cls-1, .cls-2, .cls-3, .cls-4, .cls-5, .cls-6, .cls-7, .cls-8, .cls-9, .cls-10 {
        stroke-width: 0px;
      }

      .cls-2 {
        fill: #751ffc;
      }

      .cls-3 {
        fill: #9455f9;
      }

      .cls-4 {
        fill: #f5f5f5;
      }

      .cls-5 {
        fill: #fff039;
      }

      .cls-6 {
        fill: #e0872f;
      }

      .cls-7 {
        fill: #e8e8e8;
      }

      .cls-8 {
        fill: #ffc136;
      }

      .cls-9 {
        fill: #8b39ff;
      }

      .cls-10 {
        fill: #ff6c39;
      }
    </style>
  </defs>
  <path class="cls-8" d="M234.88,117.44c0,22.77-6.48,44.03-17.71,62.03-1.76,2.84-3.64,5.59-5.64,8.25-1.14,1.53-2.31,3.03-3.53,4.49-3.05,3.69-6.32,7.19-9.79,10.47-21.05,19.96-49.48,32.2-80.77,32.2s-59.72-12.24-80.77-32.2c-3.47-3.28-6.74-6.78-9.79-10.47-1.22-1.46-2.39-2.96-3.53-4.49-1.98-2.64-3.85-5.36-5.6-8.17C6.5,161.53,0,140.25,0,117.44,0,73.85,23.75,35.81,59.01,15.54c.23-.13.47-.27.71-.39,1.57-.89,3.16-1.74,4.77-2.55.46-.23.92-.46,1.38-.69.97-.48,1.95-.94,2.94-1.39,1.25-.57,2.51-1.12,3.78-1.64.32-.13.64-.27.96-.39,1.08-.45,2.17-.87,3.27-1.27,9.72-3.59,20.04-5.92,30.77-6.81,2.96-.25,5.95-.39,8.97-.39.14-.01.29-.01.43-.01.15-.01.3-.01.45-.01h.02c.14,0,.29,0,.43.01.14,0,.29,0,.43.01,3.01,0,6.01.14,8.97.39,60.25,5,107.59,55.49,107.59,117.03Z"/>
  <path class="cls-9" d="M130.94,9.65c0,1.95-.41,3.8-1.16,5.48-.41.93-.93,1.81-1.54,2.61-2.18,2.91-5.5,4.91-9.3,5.32-.49.06-.99.09-1.5.09s-1.01-.03-1.5-.09c-6.75-.74-12-6.47-12-13.41,0-3.58,1.39-6.82,3.65-9.24,2.96-.25,5.95-.39,8.97-.39.14-.01.29-.01.43-.01.15-.01.3-.01.45-.01h.02c.14,0,.29,0,.43.01.14,0,.29,0,.43.01,3.01,0,6.01.14,8.97.39,2.26,2.42,3.65,5.66,3.65,9.24Z"/>
  <rect class="cls-4" x="115.94" y="9.21" width="3" height="159"/>
  <rect class="cls-4" x="144.52" y="-8.77" width="3" height="64.37" transform="translate(68.95 149.63) rotate(-67.7)"/>
  <circle class="cls-10" cx="117.44" cy="9.65" r="8.38"/>
  <polygon class="cls-9" points="179.17 42.98 176.53 52.76 152.72 140.96 147.8 139.66 173.89 42.98 176.53 33.2 179.17 42.98"/>
  <polygon class="cls-9" points="205.26 139.66 200.34 140.96 176.53 52.76 173.89 42.98 176.53 33.2 179.17 42.98 205.26 139.66"/>
  <ellipse class="cls-6" cx="180.78" cy="134.05" rx="13.16" ry="13.07"/>
  <path class="cls-7" d="M183.69,128.81l.56-1.81-1.17-.35-.58,1.88c-1.81-.23-3.28.61-3.75,2.15-.5,1.63.42,2.85,2.11,4.16,1.21.99,1.75,1.85,1.44,2.87-.14.43-.4.76-.74.98-.53.33-1.26.42-2.06.17-.15-.04-.31-.1-.46-.17-.84-.35-1.54-.9-1.99-1.45l-.84,1.11c.09.12.19.23.31.34.55.55,1.41,1.07,2.31,1.35l-.36,1.17h0s-.22.72-.22.72l1.19.36.32-1.07h0s.27-.87.27-.87c1.74.22,3.05-.52,3.67-1.66.11-.19.2-.4.27-.62.52-1.66-.17-2.92-1.86-4.29-1.43-1.16-1.98-1.86-1.68-2.83.22-.75,1.04-1.44,2.48-1,1.2.36,1.85,1,2.17,1.35l.85-1.09c-.44-.48-1.13-1.01-2.24-1.4Z"/>
  <rect class="cls-5" x="145.6" y="138.69" width="62" height="6.75" rx="3" ry="3"/>
  <path class="cls-10" d="M207.6,143.92c0,.91-.07,1.81-.2,2.7-1.71,12.14-14.85,21.59-30.8,21.59s-29.1-9.44-30.8-21.59c-.13-.88-.2-1.79-.2-2.7s.07-1.81.2-2.7h61.61c.13.88.2,1.79.2,2.7Z"/>
  <path class="cls-9" d="M65.87,11.91l-21.54,79.78-.61,2.27-4.92-1.3.25-.92L59.72,15.15c1.57-.89,3.16-1.74,4.77-2.55.46-.23.92-.46,1.38-.69Z"/>
  <path class="cls-9" d="M96.26,92.66l-4.92,1.3-.61-2.27L68.81,10.52c1.25-.57,2.51-1.12,3.78-1.64.32-.13.64-.27.96-.39l22.46,83.23.25.94Z"/>
  <ellipse class="cls-6" cx="67.78" cy="87.05" rx="13.16" ry="13.07"/>
  <path class="cls-7" d="M73.61,86.83c-.06,2.48-.94,4.02-2.23,4.86-.78.51-1.72.76-2.72.8v-6.12l4.16-1.5v-1.26l-4.16,1.5v-1.21l4.19-1.5v-1.26l-4.19,1.5v-3.98h-1.98v4.69l-2.09.76v1.26l2.09-.76v1.22l-2.09.76v1.26l2.09-.76v7.05c.36.05.81.07,1.14.07,3.03,0,5.05-.95,6.25-2.52.97-1.27,1.41-2.94,1.42-4.86h-1.88Z"/>
  <rect class="cls-5" x="36.6" y="91.69" width="62" height="6.75" rx="3" ry="3"/>
  <path class="cls-10" d="M98.6,96.92c0,.91-.07,1.81-.2,2.7-1.71,12.14-14.85,21.59-30.8,21.59s-29.1-9.44-30.8-21.59c-.13-.88-.2-1.79-.2-2.7s.07-1.81.2-2.7h61.61c.13.88.2,1.79.2,2.7Z"/>
  <circle class="cls-3" cx="117.56" cy="181.21" r="13"/>
  <path class="cls-2" d="M217.17,179.47c-1.76,2.84-3.64,5.59-5.64,8.25-1.14,1.53-2.31,3.03-3.53,4.49H26.88c-1.22-1.46-2.39-2.96-3.53-4.49-1.98-2.64-3.85-5.36-5.6-8.17.56-.22,1.17-.34,1.81-.34h196c.56,0,1.1.09,1.61.26Z"/>
  <path class="cls-1" d="M211.53,187.72c-1.14,1.53-2.31,3.03-3.53,4.49-3.05,3.69-6.32,7.19-9.79,10.47H36.67c-3.47-3.28-6.74-6.78-9.79-10.47-1.22-1.46-2.39-2.96-3.53-4.49h188.18Z"/>
</svg>