<?xml version="1.0" encoding="UTF-8"?>
<svg id="katman_1" data-name="katman 1" xmlns="http://www.w3.org/2000/svg" viewBox="0 0 234.87 234.88">
  <defs>
    <style>
      .cls-1 {
        fill: #2b0711;
      }

      .cls-1, .cls-2, .cls-3, .cls-4, .cls-5, .cls-6 {
        stroke-width: 0px;
      }

      .cls-2 {
        fill: #f5f5f5;
      }

      .cls-3 {
        fill: #ff3661;
      }

      .cls-4 {
        fill: #ddd;
      }

      .cls-5 {
        fill: #fff536;
      }

      .cls-6 {
        fill: #8c0c2d;
      }
    </style>
  </defs>
  <path class="cls-3" d="M234.87,117.44c0,64.86-52.58,117.44-117.44,117.44S0,182.3,0,117.44,52.57,0,117.43,0c30.39,0,58.09,11.54,78.94,30.49,1.68,1.52,3.31,3.09,4.88,4.71,1.55,1.57,3.05,3.18,4.48,4.83,5.59,6.35,10.49,13.31,14.59,20.76.41.72.8,1.46,1.18,2.19,1.35,2.56,2.6,5.18,3.75,7.85,6.19,14.29,9.62,30.05,9.62,46.61Z"/>
  <path class="cls-6" d="M221.5,62.98h-104.93c-1.24,0-2.25-.97-2.31-2.19-.01-.04-.01-.09-.01-.13v-18.31c0-1.28,1.04-2.32,2.32-2.32h89.16c5.59,6.35,10.49,13.31,14.59,20.76.41.72.8,1.46,1.18,2.19Z"/>
  <rect class="cls-1" x="129.25" y="30.2" width="7" height="18.57" rx="3.5" ry="3.5"/>
  <rect class="cls-1" x="162.25" y="30.2" width="7" height="18.57" rx="3.5" ry="3.5"/>
  <path class="cls-1" d="M201.25,35.2v10.07c0,1.94-1.57,3.5-3.5,3.5s-3.5-1.56-3.5-3.5v-11.57c0-1.44.87-2.68,2.12-3.21,1.68,1.52,3.31,3.09,4.88,4.71Z"/>
  <path class="cls-2" d="M225.25,70.83v77.37h-111V60.79h106.07c.41.72.8,1.46,1.18,2.19,1.35,2.56,2.6,5.18,3.75,7.85Z"/>
  <rect class="cls-4" x="123.25" y="68.44" width="20" height="21.85"/>
  <rect class="cls-4" x="156.25" y="68.44" width="20" height="21.85"/>
  <rect class="cls-4" x="188.25" y="68.44" width="20" height="21.85"/>
  <rect class="cls-4" x="188.25" y="95.76" width="20" height="21.85"/>
  <rect class="cls-1" x="156.25" y="95.76" width="20" height="21.85"/>
  <rect class="cls-4" x="123.25" y="95.76" width="20" height="21.85"/>
  <rect class="cls-4" x="123.25" y="123.07" width="20" height="21.85"/>
  <rect class="cls-4" x="156.25" y="123.07" width="20" height="21.85"/>
  <rect class="cls-4" x="188.25" y="123.07" width="20" height="21.85"/>
  <path class="cls-6" d="M124.32,94.85c-.68-.34-1.37-.68-2.07-.99-.42-.19-.84-.38-1.26-.56-7.21-3.12-15.15-4.83-23.5-4.83-8.83,0-17.22,1.93-24.76,5.4-.58.26-1.15.53-1.71.82-.12.06-.24.12-.35.19-2.76,1.4-5.4,3.01-7.89,4.81-14.94,10.77-24.66,28.33-24.66,48.16,0,.92.02,1.83.07,2.74,1.43,31.52,27.43,56.64,59.3,56.64s59.37-26.58,59.37-59.37c0-23.13-13.23-43.18-32.54-52.98ZM97.49,197.95c-27.68,0-50.12-22.44-50.12-50.12s22.44-50.12,50.12-50.12,50.12,22.44,50.12,50.12-22.44,50.12-50.12,50.12Z"/>
  <circle class="cls-2" cx="97.49" cy="147.83" r="50.12"/>
  <path class="cls-5" d="M130.68,79.2l-6.35,15.65c-.68-.34-1.37-.68-2.07-.99-.42-.19-.84-.38-1.26-.56-7.21-3.12-15.15-4.83-23.5-4.83-8.83,0-17.22,1.93-24.76,5.4-.58.26-1.15.53-1.71.82-.12.06-.24.12-.35.19l-6.36-15.65h66.37Z"/>
  <path class="cls-5" d="M38.12,147.83c0,.92.02,1.83.07,2.74l-13.15-.89,29.07-59.67,8.67,9.66c-14.94,10.77-24.66,28.33-24.66,48.16Z"/>
  <circle class="cls-1" cx="98.16" cy="149.85" r="8"/>
  <rect class="cls-1" x="104.56" y="118.97" width="2.31" height="38.31" transform="translate(128.21 310.6) rotate(-150)"/>
  <rect class="cls-1" x="85.73" y="138.19" width="2.31" height="23.13" transform="translate(236.64 62.87) rotate(90)"/>
</svg>